<?xml version="1.0" standalone="no"?>
<!DOCTYPE svg PUBLIC "-//W3C//DTD SVG 20010904//EN"
 "http://www.w3.org/TR/2001/REC-SVG-20010904/DTD/svg10.dtd">
<svg version="1.0" xmlns="http://www.w3.org/2000/svg"
 width="424.000000pt" height="315.000000pt" viewBox="0 0 424.000000 315.000000"
 preserveAspectRatio="xMidYMid meet">

<g transform="translate(0.000000,315.000000) scale(0.100000,-0.100000)"
fill="#000000" stroke="none">
<path d="M2530 2969 c-41 -28 -100 -75 -131 -106 l-56 -55 -48 16 c-45 16 -51
16 -110 -4 -65 -22 -77 -21 -168 7 -44 14 -51 14 -87 -2 l-39 -17 -80 72 c-90
82 -158 130 -183 130 -38 0 -51 -44 -46 -148 6 -107 31 -184 87 -266 48 -69
42 -137 -38 -431 -46 -167 -47 -175 -26 -175 8 0 18 16 24 38 5 20 27 101 47
180 l37 143 32 -58 c17 -32 54 -88 81 -124 28 -36 63 -96 78 -134 15 -38 37
-82 48 -98 31 -43 91 -67 169 -67 150 0 214 55 240 206 10 60 17 75 54 114 24
25 56 69 70 98 15 30 29 51 32 49 3 -4 93 -334 93 -344 0 -6 30 -2 30 4 0 3
-23 94 -51 202 -29 108 -55 229 -59 270 -8 74 -7 76 25 123 53 76 75 147 81
261 5 100 -2 157 -22 164 -5 2 -44 -20 -84 -48z m87 -88 c-6 -91 -31 -174 -76
-248 -24 -40 -41 -54 -41 -34 0 5 16 35 35 67 45 74 65 141 65 216 0 47 -3 58
-16 58 -18 0 -79 -47 -161 -124 -29 -27 -53 -43 -52 -35 1 17 140 142 194 175
21 13 43 20 48 17 6 -3 7 -41 4 -92z m-915 48 c76 -59 158 -141 152 -151 -3
-5 -46 30 -96 77 -65 62 -96 85 -112 83 -19 -3 -21 -8 -17 -67 4 -78 30 -156
70 -215 17 -25 31 -49 31 -55 0 -41 -56 43 -90 134 -14 37 -24 93 -28 148 -5
83 -4 87 16 87 11 0 44 -19 74 -41z m866 -61 c-6 -18 -20 -45 -30 -61 -30 -42
-128 -86 -128 -58 0 10 151 150 162 151 4 0 2 -15 -4 -32z m-836 -31 c27 -21
57 -52 69 -68 l20 -29 -24 0 c-49 0 -137 84 -137 132 0 23 7 19 72 -35z m308
-52 c23 -8 57 -15 75 -15 18 0 52 7 75 15 77 27 95 22 171 -52 96 -93 134
-170 134 -273 0 -59 -6 -86 -25 -125 l-24 -50 -4 38 c-4 41 -8 43 -36 22 -16
-12 -19 -25 -17 -63 2 -36 -3 -54 -19 -75 -33 -42 -56 -50 -157 -52 -91 -3
-95 -4 -155 -44 -66 -44 -79 -45 -130 -10 -34 25 -64 74 -72 122 -7 36 -30 51
-39 25 -2 -7 -18 12 -35 41 -89 156 -60 302 88 445 75 73 93 78 170 51z m295
-682 c-28 -160 -91 -213 -236 -200 -86 8 -117 32 -154 120 -22 52 -1 37 23
-16 32 -72 51 -82 151 -82 131 0 173 34 196 160 4 22 9 43 11 47 11 18 15 6 9
-29z m-155 -143 c-8 -5 -33 -9 -55 -9 l-40 2 35 7 c19 4 44 8 55 9 16 0 17 -1
5 -9z"/>
<path d="M1877 2653 c-36 -27 -55 -59 -43 -70 3 -4 16 3 29 14 37 33 47 36 67
18 18 -16 20 -16 26 -1 6 16 -20 66 -35 66 -4 0 -24 -12 -44 -27z"/>
<path d="M2292 2658 c-12 -12 -17 -48 -7 -48 3 0 14 5 24 12 15 9 24 6 54 -16
26 -20 37 -24 43 -15 5 8 -7 25 -31 46 -41 35 -63 41 -83 21z"/>
<path d="M1996 2324 c-9 -8 -16 -30 -16 -49 0 -25 8 -40 35 -64 20 -17 47 -34
61 -37 68 -17 165 27 178 81 4 14 1 38 -6 53 -16 33 -67 42 -104 17 -23 -15
-28 -15 -49 -1 -31 20 -79 20 -99 0z"/>
<path d="M3676 1431 c-9 -14 -39 -251 -33 -257 8 -8 159 -6 168 3 9 10 39 211
35 238 -3 18 -12 20 -84 23 -45 2 -83 -2 -86 -7z"/>
<path d="M2810 1317 c-16 -8 -29 -28 -40 -62 -8 -28 -18 -54 -21 -60 -21 -34
-97 -330 -118 -460 -6 -38 -16 -94 -22 -124 l-11 -53 -53 113 c-56 123 -205
490 -205 508 0 6 -11 18 -25 27 -23 15 -29 15 -91 -7 -92 -32 -124 -64 -124
-121 3 -346 20 -821 30 -834 26 -31 119 -10 187 42 l33 25 0 252 0 252 41 -74
c59 -109 120 -199 174 -260 l49 -53 70 4 c44 2 86 11 111 23 l39 20 22 146
c29 186 66 352 111 493 49 155 49 166 -7 194 -49 24 -112 28 -150 9z"/>
<path d="M77 1211 c-86 -35 -81 -6 -74 -361 3 -186 12 -366 21 -440 16 -134
66 -327 86 -340 22 -14 67 10 115 61 l46 50 -7 87 c-12 154 -19 137 61 137
l70 0 3 -72 c3 -87 14 -98 91 -97 84 1 139 19 147 49 9 37 -27 768 -39 783
-21 27 -188 2 -217 -33 -10 -12 -10 -55 1 -212 7 -109 13 -214 13 -233 l1 -35
-66 -3 c-47 -2 -69 1 -77 11 -8 9 -13 113 -14 338 l-3 324 -55 2 c-35 2 -72
-4 -103 -16z"/>
<path d="M3933 1211 c-55 -34 -93 -136 -93 -246 0 -78 27 -134 116 -245 86
-106 111 -157 98 -202 -7 -23 -17 -34 -32 -36 -19 -3 -26 4 -39 37 -13 34 -21
41 -44 41 -32 0 -49 -23 -49 -68 0 -67 139 -144 221 -122 45 12 86 58 95 106
13 72 -1 132 -59 244 -59 113 -107 241 -107 284 0 37 19 72 47 85 29 13 53 3
77 -34 23 -34 60 -31 64 6 2 19 -9 39 -43 77 -25 28 -56 54 -68 58 -12 4 -25
11 -29 17 -3 6 -33 12 -65 14 -45 3 -65 0 -90 -16z"/>
<path d="M3117 1095 c-4 -9 -7 -32 -7 -51 l0 -34 78 0 c83 0 102 9 102 45 0
28 -34 44 -109 52 -49 5 -59 3 -64 -12z"/>
<path d="M1864 1036 c-40 -18 -164 -135 -219 -206 -53 -70 -104 -158 -136
-234 l-24 -60 -6 70 c-3 38 -4 110 -1 160 5 87 4 92 -18 104 -25 14 -96 6
-149 -16 l-34 -14 6 -143 c3 -78 13 -180 22 -227 24 -121 64 -263 80 -279 18
-19 56 -8 93 27 31 29 37 46 80 227 12 50 44 135 71 190 48 101 129 218 156
228 23 9 30 -65 30 -323 0 -238 -2 -272 -30 -413 -18 -95 -18 -82 1 -101 30
-31 194 -12 194 22 0 5 6 57 14 118 32 247 29 481 -12 764 l-17 115 -35 2
c-19 2 -49 -4 -66 -11z"/>
<path d="M3471 961 c-98 -40 -168 -137 -192 -266 -36 -194 26 -381 144 -440
86 -43 178 -30 275 38 45 32 51 47 27 67 -13 11 -27 8 -78 -14 -34 -14 -74
-26 -88 -26 -31 0 -92 62 -117 119 -18 42 -21 163 -4 204 l12 27 37 -20 c79
-42 197 -12 235 60 39 75 8 210 -57 250 -41 26 -132 26 -194 1z m135 -112 c12
-14 19 -36 19 -64 0 -52 -26 -85 -65 -85 -55 0 -56 91 -2 153 19 22 25 22 48
-4z"/>
<path d="M3038 931 c-20 -16 -28 -38 -43 -116 -30 -161 -6 -324 69 -473 56
-110 182 -208 216 -167 9 10 6 19 -9 34 -12 12 -19 21 -16 21 2 0 -11 43 -30
96 -38 103 -65 236 -65 318 0 28 10 101 22 163 26 136 23 143 -62 143 -42 0
-64 -5 -82 -19z"/>
<path d="M926 850 c-96 -37 -164 -130 -192 -259 -36 -173 8 -343 114 -429 44
-36 47 -37 131 -37 76 0 91 3 132 28 58 34 83 62 76 82 -9 21 -46 19 -98 -5
-77 -35 -120 -23 -159 43 -38 63 -48 97 -49 152 0 46 12 121 21 131 3 2 22 -6
44 -17 31 -16 50 -19 97 -15 113 11 151 53 148 165 -3 152 -115 219 -265 161z
m147 -142 c16 -33 17 -40 3 -72 -17 -41 -59 -64 -82 -45 -19 15 -18 93 2 130
21 41 53 36 77 -13z"/>
</g>
</svg>
